:SAMPLES-PER-SECOND 30
:FULLY-SPECIFIED
:DEGREES
64
root  -21.5033 37.8791 -8.2139 177.188 -60.9575 -177.815
RightUpLeg  -7.01651 -5.02776 -13.2262
RightLeg  34.2957 5.17653 3.53902
RightFoot  -20.9052 0.699145 10.0274
RightToes  -1.74624e-010 0 -3.6325e-017
Spine  27.8324 -6.47171 -1.05565
Spine1  -10.8514 -8.56047 18.0379
HEad  -53.8596 46.9559 -38.1252
LeftShoulder1  4.93455 -7.91831 -37.0505
LeftArm  -7.38668 46.2293 -13.5246
LeftForeArm  35.1352 -19.943 -2.8817
LeftHand  -0.244104 0.0205437 5.32207
RightShoulder  -1.04275 -9.41512 10.2903
RightArm  -78.8268 -27.6832 3.07508
RightForeArm  134.088 40.4118 169.219
RightHand  0.176834 8.30842 1.12792
LeftUpLeg  -34.5964 35.049 1.08403
LeftLeg  10.3597 15.9151 -3.06326
LeftFoot  -3.03696 0.342489 -4.45643
LeftToes  8.00323e-011 -1.37366e-010 4.43692e-012
65
root  -23.9722 37.427 -7.99621 175.438 -59.2939 -175.334
RightUpLeg  -4.03793 -4.97463 -14.8929
RightLeg  33.408 6.15063 4.10725
RightFoot  -21.6869 0.999587 12.6214
RightToes  -1.74624e-010 0 -3.6325e-017
Spine  25.6551 -5.50542 -0.255643
Spine1  -10.3016 -7.51103 18.1964
HEad  -55.1077 47.2186 -40.7748
LeftShoulder1  3.8684 -6.06364 -34.2526
LeftArm  -15.2753 53.8382 -16.0464
LeftForeArm  36.5153 -24.9833 -3.3861
LeftHand  -0.244104 0.0205437 5.32207
RightShoulder  -1.22757 -11.2069 8.41699
RightArm  -77.4807 -25.9209 2.96766
RightForeArm  137.591 40.8772 169.244
RightHand  0.101287 6.23204 0.311599
LeftUpLeg  -25.5272 18.5308 17.3336
LeftLeg  -0.645319 39.8214 -9.81381
LeftFoot  -2.73084 0.542513 -6.81511
LeftToes  8.00323e-011 -1.37366e-010 4.43692e-012
66
root  -26.4248 36.904 -7.86481 172.215 -59.1595 -171.355
RightUpLeg  -0.559095 -4.03073 -15.5091
RightLeg  32.8202 7.2887 4.80153
RightFoot  -21.2513 1.2532 16.0277
RightToes  -1.74624e-010 0 -3.6325e-017
Spine  23.2975 -4.02918 -1.12907
Spine1  -10.048 -6.35569 20.4055
HEad  -53.8451 47.3091 -41.2623
LeftShoulder1  2.52394 -3.3974 -30.3683
LeftArm  -24.6534 61.4037 -20.744
LeftForeArm  40.3762 -34.3831 -5.35387
LeftHand  -0.244104 0.0205437 5.32207
RightShoulder  -1.48553 -13.5437 7.00706
RightArm  -73.4687 -19.3563 4.40452
RightForeArm  141.045 41.0356 169.38
RightHand  -0.0348276 -0.154764 0.563336
LeftUpLeg  -28.686 24.738 16.0735
LeftLeg  3.43473 37.9416 -7.71517
LeftFoot  1.66893 0.025814 -0.949595
LeftToes  8.00323e-011 -1.37366e-010 4.43692e-012
67
root  -28.8167 36.4114 -7.88743 166.754 -63.7369 -164.988
RightUpLeg  4.43707 -4.2575 -14.4162
RightLeg  32.4151 5.91381 3.79519
RightFoot  -18.869 1.29993 21.699
RightToes  -1.74624e-010 0 -3.6325e-017
Spine  21.0127 -2.56554 -3.98635
Spine1  -11.938 -5.39696 26.1381
HEad  -49.3455 44.7864 -37.4831
LeftShoulder1  1.54226 -0.96638 -28.3748
LeftArm  -33.4772 66.0765 -24.8184
LeftForeArm  46.7075 -48.6635 -9.53136
LeftHand  -0.244104 0.0205437 5.32207
RightShoulder  -1.75976 -14.4709 8.43699
RightArm  -70.535 -11.9373 5.30474
RightForeArm  154.508 43.1918 169.433
RightHand  0.288304 -2.5766 10.8743
LeftUpLeg  -39.836 36.5949 4.58523
LeftLeg  14.7853 19.4724 -1.3044
LeftFoot  10.0029 -2.0882 10.6171
LeftToes  8.00323e-011 -1.37366e-010 4.43692e-012
68
root  -31.1122 36.0735 -8.11139 146.258 -74.4353 -143.439
RightUpLeg  11.3814 -9.42183 -12.8169
RightLeg  31.4346 0.363642 0.0277781
RightFoot  -13.5716 0.45561 28.4731
RightToes  -1.74624e-010 0 -3.6325e-017
Spine  18.746 -1.08639 -7.82338
Spine1  -16.2345 -3.73992 31.238
HEad  -40.4294 34.9044 -27.4088
LeftShoulder1  1.69423 -1.16445 -29.8781
LeftArm  -37.2979 61.6187 -24.4072
LeftForeArm  55.3315 -64.3127 -18.0934
LeftHand  -0.244104 0.0205437 5.32207
RightShoulder  -1.73142 -12.1409 13.1269
RightArm  -74.5793 -10.052 4.98396
RightForeArm  163.786 46.6619 168.886
RightHand  0.499094 -2.67314 19.4366
LeftUpLeg  -50.034 32.9711 -7.13083
LeftLeg  21.9142 2.98046 2.56656
LeftFoot  16.3519 -4.53837 18.0543
LeftToes  8.00323e-011 -1.37366e-010 4.43692e-012
69
root  -33.1487 36.0313 -8.49987 80.0405 -81.6856 -75.7476
RightUpLeg  18.7297 -20.1784 -12.8424
RightLeg  29.5638 -5.16308 -3.42364
RightFoot  -5.56726 -1.7288 32.8723
RightToes  -1.74624e-010 0 -3.6325e-017
Spine  17.9013 0.900005 -10.8888
Spine1  -21.5441 -0.915883 28.7249
HEad  -31.4368 15.6361 -14.0836
LeftShoulder1  3.1634 -4.51062 -33.2194
LeftArm  -33.8909 43.6605 -22.2233
LeftForeArm  65.7701 -73.6578 -29.6811
LeftHand  -0.244104 0.0205437 5.32207
RightShoulder  -1.09567 -7.81478 18.7814
RightArm  -78.7593 -8.77673 4.37209
RightForeArm  155.947 51.8796 166.876
RightHand  -0.62804 -13.5896 7.39459
LeftUpLeg  -48.1328 13.6843 -4.26844
LeftLeg  26.212 3.75749 2.33948
LeftFoot  16.3639 -4.71812 18.5335
LeftToes  8.00323e-011 -1.37366e-010 4.43692e-012
70
root  -34.7562 36.2792 -8.92604 14.8338 -70.048 -8.50465
RightUpLeg  23.3821 -30.9696 -14.0916
RightLeg  28.3833 -3.30577 -2.15952
RightFoot  3.24633 -4.32422 33.2359
RightToes  -1.74624e-010 0 -3.6325e-017
Spine  19.7538 3.07795 -8.93286
Spine1  -25.6623 1.71439 15.0795
HEad  -29.3659 -7.37045 -0.610727
LeftShoulder1  5.31262 -8.90622 -36.6768
LeftArm  -23.3026 16.4372 -24.7411
LeftForeArm  68.439 -72.8487 -28.666
LeftHand  -0.244104 0.0205437 5.32207
RightShoulder  -0.292978 -4.554 20.8352
RightArm  -75.7934 -1.54392 1.54033
RightForeArm  148.812 68.8405 146.351
RightHand  0.21399 -16.199 -2.92863
LeftUpLeg  -46.8389 1.44177 -6.99872
LeftLeg  26.1606 0.712007 0.739844
LeftFoot  14.641 -3.85425 16.2108
LeftToes  8.00323e-011 -1.37366e-010 4.43692e-012
71
root  -35.885 36.6018 -9.35287 10.4574 -59.9185 -2.22925
RightUpLeg  21.5044 -34.1979 -12.9768
RightLeg  31.5845 5.40421 3.48378
RightFoot  9.25644 -5.53656 30.1631
RightToes  -1.74624e-010 0 -3.6325e-017
Spine  22.9756 4.38016 -0.698066
Spine1  -25.451 3.26328 -5.73319
HEad  -36.2626 -23.6679 12.4432
LeftShoulder1  7.12962 -12.5101 -38.4144
LeftArm  -7.04313 -5.76393 -33.7057
LeftForeArm  67.1604 -67.3336 -19.4656
LeftHand  -0.244104 0.0205437 5.32207
RightShoulder  0.197551 -2.57425 15.5964
RightArm  -76.0761 7.03876 -4.51023
RightForeArm  84.6536 71.439 31.8493
RightHand  -1.24239 -8.47495 42.7476
LeftUpLeg  -44.6482 -1.97 -10.9829
LeftLeg  23.9342 -5.14138 -2.14889
LeftFoot  15.1814 -3.5551 14.6084
LeftToes  8.00323e-011 -1.37366e-010 4.43692e-012
